<svg width="32" height="32" viewBox="0 0 32 32" fill="none" xmlns="http://www.w3.org/2000/svg">
<rect width="32" height="32" rx="8" fill="#FEE2E2"/>
<path d="M14.4688 15.3673C14.5354 15.3289 14.5906 15.2736 14.629 15.2071C14.6674 15.1406 14.6876 15.0651 14.6876 14.9883V11.0508C14.6872 10.981 14.6701 10.9124 14.6378 10.8506C14.6055 10.7887 14.5589 10.7356 14.5018 10.6954C14.4448 10.6553 14.379 10.6294 14.3099 10.6198C14.2408 10.6103 14.1704 10.6174 14.1046 10.6406C12.8276 11.0926 11.7538 11.9852 11.076 13.158C10.3983 14.3309 10.1611 15.707 10.4072 17.0391C10.4199 17.1079 10.4491 17.1728 10.4921 17.228C10.5351 17.2833 10.5907 17.3275 10.6544 17.3568C10.7117 17.3836 10.7743 17.3974 10.8376 17.3973C10.9144 17.3973 10.9898 17.3771 11.0563 17.3387L14.4688 15.3673ZM13.8126 11.7136V14.7356L11.1941 16.2466C11.1876 16.1641 11.1876 16.0809 11.1876 16C11.1884 15.1132 11.4338 14.2437 11.897 13.4875C12.3601 12.7312 13.023 12.1174 13.8126 11.7136ZM21.6876 16C21.688 17.2486 21.2776 18.4626 20.5196 19.4548C19.7616 20.447 18.6981 21.1621 17.4933 21.4899C16.2886 21.8178 15.0094 21.74 13.8532 21.2687C12.697 20.7974 11.728 19.9587 11.0957 18.882C11.0662 18.8323 11.0469 18.7772 11.0388 18.72C11.0308 18.6627 11.0341 18.6045 11.0487 18.5485C11.0633 18.4926 11.0889 18.4401 11.1239 18.3941C11.1589 18.3481 11.2026 18.3095 11.2527 18.2805L15.5626 15.772V10.75C15.5626 10.634 15.6087 10.5227 15.6907 10.4406C15.7728 10.3586 15.884 10.3125 16.0001 10.3125C16.9926 10.313 17.9677 10.5731 18.8286 11.067C19.6895 11.5608 20.4063 12.2713 20.9077 13.1278C20.9138 13.1366 20.9192 13.1453 20.9247 13.1546C20.9302 13.1639 20.9356 13.1748 20.9405 13.1847C21.4313 14.0417 21.6888 15.0124 21.6876 16Z" fill="#EF4040"/>
</svg>
