<svg width="32" height="32" viewBox="0 0 32 32" fill="none" xmlns="http://www.w3.org/2000/svg">
<rect width="32" height="32" rx="8" fill="#E1F7E3"/>
<path d="M12.5064 17.0828C12.5079 17.1125 12.5034 17.1421 12.493 17.1699C12.4827 17.1977 12.4668 17.2231 12.4464 17.2446C12.4259 17.2661 12.4013 17.2832 12.374 17.2949C12.3467 17.3066 12.3174 17.3126 12.2877 17.3125H9.87488C9.77614 17.3127 9.68024 17.2794 9.6028 17.2182C9.52535 17.1569 9.47091 17.0712 9.44832 16.9751C9.43426 16.9093 9.4349 16.8412 9.45022 16.7757C9.46554 16.7102 9.49514 16.6489 9.53692 16.5961C9.9229 16.0842 10.435 15.6812 11.0233 15.4264C10.765 15.1909 10.567 14.8969 10.4456 14.5691C10.3243 14.2414 10.2833 13.8893 10.3261 13.5424C10.3688 13.1955 10.494 12.8639 10.6913 12.5754C10.8885 12.2868 11.152 12.0498 11.4597 11.884C11.7675 11.7183 12.1104 11.6287 12.4599 11.6227C12.8093 11.6167 13.1551 11.6946 13.4683 11.8498C13.7815 12.0049 14.0529 12.2329 14.2599 12.5145C14.4668 12.7962 14.6033 13.1233 14.6579 13.4685C14.6649 13.515 14.6566 13.5624 14.6342 13.6037C14.6118 13.6449 14.5765 13.6778 14.5337 13.6971C13.9269 13.9777 13.413 14.4259 13.0526 14.989C12.6922 15.5521 12.5005 16.2065 12.4999 16.875C12.4999 16.945 12.4999 17.0139 12.5064 17.0828ZM22.4596 16.5956C22.0745 16.0843 21.5635 15.6815 20.9764 15.4264C21.2347 15.1909 21.4328 14.8969 21.5541 14.5691C21.6754 14.2414 21.7164 13.8893 21.6737 13.5424C21.631 13.1955 21.5057 12.8639 21.3085 12.5754C21.1112 12.2868 20.8477 12.0498 20.54 11.884C20.2323 11.7183 19.8894 11.6287 19.5399 11.6227C19.1905 11.6167 18.8447 11.6946 18.5315 11.8498C18.2183 12.0049 17.9469 12.2329 17.7399 12.5145C17.5329 12.7962 17.3965 13.1233 17.3419 13.4685C17.3349 13.515 17.3432 13.5624 17.3656 13.6037C17.388 13.6449 17.4233 13.6778 17.4661 13.6971C18.0729 13.9777 18.5868 14.4259 18.9472 14.989C19.3075 15.5521 19.4993 16.2065 19.4999 16.875C19.4999 16.945 19.4999 17.0139 19.4933 17.0828C19.4918 17.1125 19.4964 17.1421 19.5067 17.1699C19.5171 17.1977 19.5329 17.2231 19.5534 17.2446C19.5739 17.2661 19.5985 17.2832 19.6258 17.2949C19.653 17.3066 19.6824 17.3126 19.7121 17.3125H22.1249C22.2236 17.3127 22.3195 17.2794 22.397 17.2182C22.4744 17.1569 22.5289 17.0712 22.5514 16.9751C22.5656 16.9092 22.5649 16.8409 22.5495 16.7753C22.5341 16.7097 22.5043 16.6483 22.4623 16.5956H22.4596ZM17.5924 18.957C18.028 18.6234 18.3481 18.1616 18.5078 17.6367C18.6674 17.1117 18.6585 16.55 18.4824 16.0303C18.3063 15.5107 17.9718 15.0593 17.5258 14.7396C17.0799 14.4199 16.545 14.2479 15.9963 14.2479C15.4476 14.2479 14.9128 14.4199 14.4668 14.7396C14.0209 15.0593 13.6864 15.5107 13.5102 16.0303C13.3341 16.55 13.3253 17.1117 13.4849 17.6367C13.6445 18.1616 13.9647 18.6234 14.4003 18.957C13.6273 19.2919 12.9818 19.8655 12.5584 20.5938C12.52 20.6603 12.4998 20.7357 12.4998 20.8125C12.4998 20.8894 12.52 20.9648 12.5584 21.0313C12.5968 21.0978 12.6521 21.1531 12.7186 21.1914C12.7851 21.2298 12.8606 21.25 12.9374 21.25H19.0624C19.1392 21.25 19.2146 21.2298 19.2812 21.1914C19.3477 21.1531 19.4029 21.0978 19.4413 21.0313C19.4798 20.9648 19.5 20.8894 19.5 20.8125C19.5 20.7357 19.4798 20.6603 19.4414 20.5938C19.017 19.865 18.3704 19.2914 17.5962 18.957H17.5924Z" fill="#3EA949"/>
</svg>
