<svg width="232" height="203" viewBox="0 0 232 203" fill="none" xmlns="http://www.w3.org/2000/svg">
<path d="M42.8775 200.836C41.4352 202.509 38.9043 202.701 37.2816 201.202C23.5413 188.508 13.0596 172.663 6.75554 155.008C0.00264228 136.097 -1.72509 115.756 1.74139 95.9758C5.20786 76.196 13.7498 57.6549 26.5314 42.1666C39.3131 26.6783 55.8965 14.7734 74.6592 7.61669C93.4219 0.460013 113.721 -1.70329 133.571 1.33846C153.42 4.3802 172.14 12.5228 187.899 24.9695C203.658 37.4163 215.915 53.7408 223.472 72.3458C230.527 89.7141 233.26 108.514 231.464 127.135C231.252 129.334 229.236 130.876 227.046 130.588L186.815 125.303C184.625 125.015 183.095 123.006 183.252 120.803C183.986 110.528 182.357 100.203 178.467 90.6266C174.074 79.8127 166.95 70.3243 157.79 63.0899C148.631 55.8554 137.75 51.1226 126.213 49.3546C114.675 47.5867 102.877 48.8441 91.9713 53.0038C81.0657 57.1635 71.4268 64.083 63.9977 73.0854C56.5686 82.0877 51.6037 92.8645 49.5888 104.361C47.574 115.858 48.5782 127.681 52.5032 138.673C55.9791 148.407 61.64 157.195 69.03 164.371C70.6148 165.91 70.8115 168.427 69.3692 170.1L42.8775 200.836Z" fill="#563540"/>
</svg>
