<svg width="20" height="19" viewBox="0 0 20 19" fill="none" xmlns="http://www.w3.org/2000/svg">
<rect width="20" height="18.8704" transform="translate(0 0.0231934)" fill="#CFCFCD"/>
<path d="M18.4016 11.0956C17.8969 12.6501 16.8854 14.0149 15.511 14.9957C14.3043 15.8526 12.8684 16.3752 11.3644 16.5049C9.86047 16.6345 8.34795 16.3661 6.99667 15.7298C5.64538 15.0935 4.50881 14.1144 3.71452 12.9024C2.92024 11.6905 2.49967 10.2936 2.50004 8.86871C2.49461 7.20549 3.06766 5.58653 4.13129 4.26019C5.17077 2.96344 6.61725 2.00904 8.26488 1.53283C8.37347 1.50128 8.48913 1.49826 8.5994 1.52409C8.70968 1.54992 8.81041 1.60363 8.89075 1.67943C8.97109 1.75524 9.02802 1.85028 9.05539 1.95432C9.08277 2.05837 9.07957 2.16749 9.04613 2.26995C8.68585 3.39439 8.65564 4.58998 8.95873 5.72933C9.26181 6.86869 9.88683 7.90911 10.7672 8.73975C11.6475 9.57038 12.7502 10.1601 13.9578 10.4461C15.1654 10.732 16.4325 10.7035 17.6243 10.3636C17.7328 10.332 17.8485 10.329 17.9588 10.3549C18.0691 10.3807 18.1698 10.4344 18.2501 10.5102C18.3305 10.586 18.3874 10.681 18.4148 10.7851C18.4421 10.8891 18.4389 10.9983 18.4055 11.1007L18.4016 11.0956Z" fill="white"/>
</svg>
