<svg width="20" height="19" viewBox="0 0 20 19" fill="none" xmlns="http://www.w3.org/2000/svg">
<rect width="20" height="18.8704" transform="translate(0 0.0231934)" fill="#CFCFCD"/>
<path d="M9.375 2.97164V2.38194C9.375 2.22554 9.44085 2.07555 9.55806 1.96496C9.67527 1.85437 9.83424 1.79224 10 1.79224C10.1658 1.79224 10.3247 1.85437 10.4419 1.96496C10.5592 2.07555 10.625 2.22554 10.625 2.38194V2.97164C10.625 3.12804 10.5592 3.27803 10.4419 3.38862C10.3247 3.49921 10.1658 3.56134 10 3.56134C9.83424 3.56134 9.67527 3.49921 9.55806 3.38862C9.44085 3.27803 9.375 3.12804 9.375 2.97164ZM10 4.74074C9.01109 4.74074 8.04439 5.01742 7.22215 5.5358C6.3999 6.05418 5.75904 6.79097 5.3806 7.653C5.00216 8.51503 4.90315 9.46358 5.09607 10.3787C5.289 11.2938 5.7652 12.1344 6.46447 12.7942C7.16373 13.454 8.05464 13.9033 9.02455 14.0853C9.99445 14.2673 10.9998 14.1739 11.9134 13.8169C12.827 13.4598 13.6079 12.8551 14.1573 12.0793C14.7068 11.3035 15 10.3914 15 9.45835C14.9986 8.20758 14.4713 7.00843 13.5339 6.12401C12.5966 5.23958 11.3256 4.74211 10 4.74074ZM4.55781 5.15795C4.67509 5.26861 4.83415 5.33077 5 5.33077C5.16585 5.33077 5.32491 5.26861 5.44219 5.15795C5.55946 5.0473 5.62535 4.89723 5.62535 4.74074C5.62535 4.58426 5.55946 4.43418 5.44219 4.32353L4.81719 3.73383C4.69991 3.62318 4.54085 3.56101 4.375 3.56101C4.20915 3.56101 4.05009 3.62318 3.93281 3.73383C3.81554 3.84448 3.74965 3.99455 3.74965 4.15104C3.74965 4.30753 3.81554 4.4576 3.93281 4.56825L4.55781 5.15795ZM4.55781 13.7587L3.93281 14.3484C3.81554 14.4591 3.74965 14.6092 3.74965 14.7657C3.74965 14.9221 3.81554 15.0722 3.93281 15.1829C4.05009 15.2935 4.20915 15.3557 4.375 15.3557C4.54085 15.3557 4.69991 15.2935 4.81719 15.1829L5.44219 14.5932C5.50026 14.5384 5.54632 14.4733 5.57775 14.4018C5.60917 14.3302 5.62535 14.2534 5.62535 14.176C5.62535 14.0985 5.60917 14.0217 5.57775 13.9502C5.54632 13.8786 5.50026 13.8135 5.44219 13.7587C5.38412 13.704 5.31518 13.6605 5.23931 13.6308C5.16344 13.6012 5.08212 13.5859 5 13.5859C4.91788 13.5859 4.83656 13.6012 4.76069 13.6308C4.68482 13.6605 4.61588 13.704 4.55781 13.7587ZM15 5.33044C15.0821 5.3305 15.1634 5.3153 15.2393 5.28571C15.3152 5.25611 15.3841 5.2127 15.4422 5.15795L16.0672 4.56825C16.1845 4.4576 16.2503 4.30753 16.2503 4.15104C16.2503 3.99455 16.1845 3.84448 16.0672 3.73383C15.9499 3.62318 15.7909 3.56101 15.625 3.56101C15.4591 3.56101 15.3001 3.62318 15.1828 3.73383L14.5578 4.32353C14.4703 4.406 14.4107 4.51112 14.3865 4.62557C14.3624 4.74002 14.3748 4.85866 14.4221 4.96647C14.4695 5.07428 14.5496 5.16642 14.6525 5.23121C14.7554 5.296 14.8763 5.33053 15 5.33044ZM15.4422 13.7587C15.3249 13.6481 15.1659 13.5859 15 13.5859C14.8341 13.5859 14.6751 13.6481 14.5578 13.7587C14.4405 13.8694 14.3747 14.0195 14.3747 14.176C14.3747 14.3324 14.4405 14.4825 14.5578 14.5932L15.1828 15.1829C15.2409 15.2377 15.3098 15.2811 15.3857 15.3108C15.4616 15.3404 15.5429 15.3557 15.625 15.3557C15.7071 15.3557 15.7884 15.3404 15.8643 15.3108C15.9402 15.2811 16.0091 15.2377 16.0672 15.1829C16.1253 15.1281 16.1713 15.063 16.2027 14.9915C16.2342 14.9199 16.2503 14.8431 16.2503 14.7657C16.2503 14.6882 16.2342 14.6114 16.2027 14.5399C16.1713 14.4683 16.1253 14.4032 16.0672 14.3484L15.4422 13.7587ZM3.125 8.86865H2.5C2.33424 8.86865 2.17527 8.93078 2.05806 9.04137C1.94085 9.15196 1.875 9.30195 1.875 9.45835C1.875 9.61475 1.94085 9.76474 2.05806 9.87533C2.17527 9.98592 2.33424 10.048 2.5 10.048H3.125C3.29076 10.048 3.44973 9.98592 3.56694 9.87533C3.68415 9.76474 3.75 9.61475 3.75 9.45835C3.75 9.30195 3.68415 9.15196 3.56694 9.04137C3.44973 8.93078 3.29076 8.86865 3.125 8.86865ZM10 15.3554C9.83424 15.3554 9.67527 15.4175 9.55806 15.5281C9.44085 15.6387 9.375 15.7887 9.375 15.9451V16.5348C9.375 16.6912 9.44085 16.8412 9.55806 16.9517C9.67527 17.0623 9.83424 17.1245 10 17.1245C10.1658 17.1245 10.3247 17.0623 10.4419 16.9517C10.5592 16.8412 10.625 16.6912 10.625 16.5348V15.9451C10.625 15.7887 10.5592 15.6387 10.4419 15.5281C10.3247 15.4175 10.1658 15.3554 10 15.3554ZM17.5 8.86865H16.875C16.7092 8.86865 16.5503 8.93078 16.4331 9.04137C16.3158 9.15196 16.25 9.30195 16.25 9.45835C16.25 9.61475 16.3158 9.76474 16.4331 9.87533C16.5503 9.98592 16.7092 10.048 16.875 10.048H17.5C17.6658 10.048 17.8247 9.98592 17.9419 9.87533C18.0592 9.76474 18.125 9.61475 18.125 9.45835C18.125 9.30195 18.0592 9.15196 17.9419 9.04137C17.8247 8.93078 17.6658 8.86865 17.5 8.86865Z" fill="#563540"/>
</svg>
