<svg width="16" height="17" viewBox="0 0 16 17" fill="none" xmlns="http://www.w3.org/2000/svg">
<path d="M12.5481 3.86813C11.3379 2.66974 9.70314 1.99826 8 2H7.93313C6.22083 2.01762 4.58466 2.71021 3.3801 3.92729C2.17554 5.14437 1.49991 6.78762 1.5 8.5C1.5 11.1875 3.16125 13.4413 5.835 14.3856C6.13657 14.492 6.45924 14.5244 6.77594 14.4803C7.09264 14.4362 7.39415 14.3168 7.65518 14.1321C7.91621 13.9474 8.12916 13.7028 8.27615 13.4188C8.42314 13.1348 8.49991 12.8198 8.5 12.5C8.5 12.2348 8.60536 11.9804 8.79289 11.7929C8.98043 11.6054 9.23478 11.5 9.5 11.5H12.3881C12.8418 11.5022 13.2826 11.3492 13.6373 11.0663C13.992 10.7835 14.2393 10.3878 14.3381 9.945C14.4499 9.45294 14.5042 8.94958 14.5 8.445C14.4936 7.59092 14.3178 6.74659 13.9828 5.96094C13.6477 5.17529 13.1601 4.46395 12.5481 3.86813ZM5.25 11C5.10166 11 4.95666 10.956 4.83332 10.8736C4.70999 10.7912 4.61386 10.6741 4.55709 10.537C4.50032 10.4 4.48547 10.2492 4.51441 10.1037C4.54335 9.9582 4.61478 9.82456 4.71967 9.71967C4.82456 9.61478 4.9582 9.54335 5.10368 9.51441C5.24917 9.48548 5.39997 9.50033 5.53701 9.55709C5.67406 9.61386 5.79119 9.70999 5.8736 9.83333C5.95601 9.95666 6 10.1017 6 10.25C6 10.4489 5.92098 10.6397 5.78033 10.7803C5.63968 10.921 5.44891 11 5.25 11ZM5.25 7.5C5.10166 7.5 4.95666 7.45602 4.83332 7.37361C4.70999 7.29119 4.61386 7.17406 4.55709 7.03702C4.50032 6.89997 4.48547 6.74917 4.51441 6.60369C4.54335 6.4582 4.61478 6.32456 4.71967 6.21967C4.82456 6.11478 4.9582 6.04335 5.10368 6.01441C5.24917 5.98548 5.39997 6.00033 5.53701 6.05709C5.67406 6.11386 5.79119 6.20999 5.8736 6.33333C5.95601 6.45666 6 6.60167 6 6.75C6 6.94892 5.92098 7.13968 5.78033 7.28033C5.63968 7.42099 5.44891 7.5 5.25 7.5ZM8 6C7.85166 6 7.70666 5.95602 7.58332 5.87361C7.45999 5.79119 7.36386 5.67406 7.30709 5.53702C7.25032 5.39997 7.23547 5.24917 7.26441 5.10369C7.29335 4.9582 7.36478 4.82456 7.46967 4.71967C7.57456 4.61478 7.7082 4.54335 7.85368 4.51441C7.99917 4.48548 8.14997 4.50033 8.28701 4.55709C8.42406 4.61386 8.54119 4.70999 8.6236 4.83333C8.70601 4.95666 8.75 5.10167 8.75 5.25C8.75 5.44892 8.67098 5.63968 8.53033 5.78033C8.38968 5.92099 8.19891 6 8 6ZM10.75 7.5C10.6017 7.5 10.4567 7.45602 10.3333 7.37361C10.21 7.29119 10.1139 7.17406 10.0571 7.03702C10.0003 6.89997 9.98547 6.74917 10.0144 6.60369C10.0434 6.4582 10.1148 6.32456 10.2197 6.21967C10.3246 6.11478 10.4582 6.04335 10.6037 6.01441C10.7492 5.98548 10.9 6.00033 11.037 6.05709C11.1741 6.11386 11.2912 6.20999 11.3736 6.33333C11.456 6.45666 11.5 6.60167 11.5 6.75C11.5 6.94892 11.421 7.13968 11.2803 7.28033C11.1397 7.42099 10.9489 7.5 10.75 7.5Z" fill="#563540"/>
</svg>
