<svg width="18" height="18" viewBox="0 0 18 18" fill="none" xmlns="http://www.w3.org/2000/svg">
<path d="M14.625 2.25H3.375C3.07663 2.25 2.79048 2.36853 2.5795 2.5795C2.36853 2.79048 2.25 3.07663 2.25 3.375V14.625C2.25 14.9234 2.36853 15.2095 2.5795 15.4205C2.79048 15.6315 3.07663 15.75 3.375 15.75H14.625C14.9234 15.75 15.2095 15.6315 15.4205 15.4205C15.6315 15.2095 15.75 14.9234 15.75 14.625V3.375C15.75 3.07663 15.6315 2.79048 15.4205 2.5795C15.2095 2.36853 14.9234 2.25 14.625 2.25ZM11.8125 10.125C11.8125 10.2742 11.7532 10.4173 11.6477 10.5227C11.5423 10.6282 11.3992 10.6875 11.25 10.6875C11.1008 10.6875 10.9577 10.6282 10.8523 10.5227C10.7468 10.4173 10.6875 10.2742 10.6875 10.125V8.10773L7.14797 11.648C7.09571 11.7002 7.03366 11.7417 6.96538 11.77C6.8971 11.7983 6.82391 11.8128 6.75 11.8128C6.67609 11.8128 6.6029 11.7983 6.53462 11.77C6.46634 11.7417 6.40429 11.7002 6.35203 11.648C6.29977 11.5957 6.25831 11.5337 6.23003 11.4654C6.20174 11.3971 6.18719 11.3239 6.18719 11.25C6.18719 11.1761 6.20174 11.1029 6.23003 11.0346C6.25831 10.9663 6.29977 10.9043 6.35203 10.852L9.89227 7.3125H7.875C7.72582 7.3125 7.58274 7.25324 7.47725 7.14775C7.37176 7.04226 7.3125 6.89918 7.3125 6.75C7.3125 6.60082 7.37176 6.45774 7.47725 6.35225C7.58274 6.24676 7.72582 6.1875 7.875 6.1875H11.25C11.3992 6.1875 11.5423 6.24676 11.6477 6.35225C11.7532 6.45774 11.8125 6.60082 11.8125 6.75V10.125Z" fill="#563540"/>
</svg>
