<svg width="32" height="32" viewBox="0 0 32 32" fill="none" xmlns="http://www.w3.org/2000/svg">
<rect width="32" height="32" rx="8" fill="#FFF4D4"/>
<path d="M22.1091 13.0545L20.707 18.1011C20.6299 18.3768 20.465 18.6198 20.2373 18.7933C20.0096 18.9668 19.7316 19.0613 19.4453 19.0625H14.04C13.7529 19.0624 13.4737 18.9683 13.2451 18.7948C13.0164 18.6212 12.8508 18.3776 12.7734 18.1011L10.855 11.1875H9.875C9.75897 11.1875 9.64769 11.1414 9.56564 11.0594C9.48359 10.9773 9.4375 10.866 9.4375 10.75C9.4375 10.634 9.48359 10.5227 9.56564 10.4406C9.64769 10.3586 9.75897 10.3125 9.875 10.3125H11.1875C11.2831 10.3125 11.3762 10.3438 11.4523 10.4017C11.5285 10.4596 11.5836 10.5408 11.6091 10.633L12.1276 12.5H21.6875C21.7549 12.5 21.8215 12.5156 21.8819 12.5455C21.9423 12.5755 21.995 12.619 22.0358 12.6727C22.0767 12.7264 22.1045 12.7888 22.1172 12.855C22.13 12.9213 22.1272 12.9895 22.1091 13.0545ZM13.8125 19.9375C13.6394 19.9375 13.4703 19.9888 13.3264 20.085C13.1825 20.1811 13.0703 20.3178 13.0041 20.4777C12.9379 20.6375 12.9206 20.8135 12.9543 20.9832C12.9881 21.1529 13.0714 21.3088 13.1938 21.4312C13.3162 21.5536 13.4721 21.6369 13.6418 21.6707C13.8115 21.7044 13.9875 21.6871 14.1473 21.6209C14.3072 21.5547 14.4439 21.4425 14.54 21.2986C14.6362 21.1547 14.6875 20.9856 14.6875 20.8125C14.6875 20.5804 14.5953 20.3579 14.4312 20.1938C14.2671 20.0297 14.0446 19.9375 13.8125 19.9375ZM19.5 19.9375C19.3269 19.9375 19.1578 19.9888 19.0139 20.085C18.87 20.1811 18.7578 20.3178 18.6916 20.4777C18.6254 20.6375 18.6081 20.8135 18.6418 20.9832C18.6756 21.1529 18.7589 21.3088 18.8813 21.4312C19.0037 21.5536 19.1596 21.6369 19.3293 21.6707C19.499 21.7044 19.675 21.6871 19.8348 21.6209C19.9947 21.5547 20.1314 21.4425 20.2275 21.2986C20.3237 21.1547 20.375 20.9856 20.375 20.8125C20.375 20.5804 20.2828 20.3579 20.1187 20.1938C19.9546 20.0297 19.7321 19.9375 19.5 19.9375Z" fill="#F98207"/>
</svg>
