<svg width="16" height="17" viewBox="0 0 16 17" fill="none" xmlns="http://www.w3.org/2000/svg">
<path d="M13.5 3.5H2.50002C2.2348 3.5 1.98045 3.60536 1.79291 3.79289C1.60537 3.98043 1.50002 4.23478 1.50002 4.5V14.5C1.49886 14.6907 1.55281 14.8777 1.65537 15.0384C1.75793 15.1992 1.90473 15.3269 2.07814 15.4062C2.21029 15.4678 2.35425 15.4998 2.50002 15.5C2.73477 15.4994 2.96174 15.4157 3.14064 15.2638L3.14627 15.2594L5.18752 13.5H13.5C13.7652 13.5 14.0196 13.3946 14.2071 13.2071C14.3947 13.0196 14.5 12.7652 14.5 12.5V4.5C14.5 4.23478 14.3947 3.98043 14.2071 3.79289C14.0196 3.60536 13.7652 3.5 13.5 3.5ZM5.25002 9.25C5.10168 9.25 4.95668 9.20601 4.83334 9.1236C4.71 9.04119 4.61387 8.92406 4.55711 8.78701C4.50034 8.64997 4.48549 8.49917 4.51443 8.35368C4.54337 8.2082 4.6148 8.07456 4.71969 7.96967C4.82458 7.86478 4.95821 7.79335 5.1037 7.76441C5.24919 7.73547 5.39999 7.75032 5.53703 7.80709C5.67408 7.86386 5.79121 7.95999 5.87362 8.08332C5.95603 8.20666 6.00002 8.35166 6.00002 8.5C6.00002 8.69891 5.921 8.88968 5.78035 9.03033C5.6397 9.17098 5.44893 9.25 5.25002 9.25ZM8.00002 9.25C7.85168 9.25 7.70668 9.20601 7.58334 9.1236C7.46 9.04119 7.36387 8.92406 7.30711 8.78701C7.25034 8.64997 7.23549 8.49917 7.26443 8.35368C7.29337 8.2082 7.3648 8.07456 7.46969 7.96967C7.57458 7.86478 7.70821 7.79335 7.8537 7.76441C7.99919 7.73547 8.14999 7.75032 8.28703 7.80709C8.42407 7.86386 8.54121 7.95999 8.62362 8.08332C8.70603 8.20666 8.75002 8.35166 8.75002 8.5C8.75002 8.69891 8.671 8.88968 8.53035 9.03033C8.3897 9.17098 8.19893 9.25 8.00002 9.25ZM10.75 9.25C10.6017 9.25 10.4567 9.20601 10.3333 9.1236C10.21 9.04119 10.1139 8.92406 10.0571 8.78701C10.0003 8.64997 9.98549 8.49917 10.0144 8.35368C10.0434 8.2082 10.1148 8.07456 10.2197 7.96967C10.3246 7.86478 10.4582 7.79335 10.6037 7.76441C10.7492 7.73547 10.9 7.75032 11.037 7.80709C11.1741 7.86386 11.2912 7.95999 11.3736 8.08332C11.456 8.20666 11.5 8.35166 11.5 8.5C11.5 8.69891 11.421 8.88968 11.2803 9.03033C11.1397 9.17098 10.9489 9.25 10.75 9.25Z" fill="#563540"/>
</svg>
