<svg width="32" height="32" viewBox="0 0 32 32" fill="none" xmlns="http://www.w3.org/2000/svg">
<rect width="32" height="32" rx="8" fill="#EAE8FF"/>
<path d="M22.125 12.0625V15.5625C22.1251 15.6491 22.0994 15.7337 22.0514 15.8057C22.0033 15.8778 21.935 15.9339 21.855 15.967C21.775 16.0002 21.687 16.0088 21.6021 15.9919C21.5171 15.975 21.4392 15.9333 21.378 15.872L19.9375 14.431L16.747 17.622C16.7064 17.6627 16.6581 17.695 16.605 17.717C16.5519 17.739 16.495 17.7503 16.4375 17.7503C16.38 17.7503 16.3231 17.739 16.27 17.717C16.2169 17.695 16.1686 17.6627 16.128 17.622L14.25 15.7435L10.622 19.372C10.5399 19.4541 10.4286 19.5002 10.3125 19.5002C10.1964 19.5002 10.0851 19.4541 10.003 19.372C9.92088 19.2899 9.87476 19.1786 9.87476 19.0625C9.87476 18.9464 9.92088 18.8351 10.003 18.753L13.9405 14.8155C13.9811 14.7748 14.0294 14.7425 14.0825 14.7205C14.1356 14.6985 14.1925 14.6872 14.25 14.6872C14.3075 14.6872 14.3644 14.6985 14.4175 14.7205C14.4706 14.7425 14.5189 14.7748 14.5595 14.8155L16.4375 16.694L19.319 13.8125L17.878 12.372C17.8167 12.3108 17.775 12.2329 17.7581 12.1479C17.7412 12.063 17.7498 11.975 17.783 11.895C17.8161 11.815 17.8722 11.7467 17.9443 11.6986C18.0163 11.6506 18.1009 11.6249 18.1875 11.625H21.6875C21.8035 11.625 21.9148 11.6711 21.9969 11.7531C22.0789 11.8352 22.125 11.9465 22.125 12.0625Z" fill="#7752FE"/>
</svg>
