<svg width="97" height="22" viewBox="0 0 97 22" fill="none" xmlns="http://www.w3.org/2000/svg">
<rect width="97" height="22" rx="4" fill="#563540"/>
<path d="M20.572 5.768V7.96H17.596V17H14.86V7.96H11.884V5.768H20.572ZM30.7611 8.072V17H28.0251V15.784C27.7478 16.1787 27.3691 16.4987 26.8891 16.744C26.4198 16.9787 25.8971 17.096 25.3211 17.096C24.6385 17.096 24.0358 16.9467 23.5131 16.648C22.9905 16.3387 22.5851 15.896 22.2971 15.32C22.0091 14.744 21.8651 14.0667 21.8651 13.288V8.072H24.5851V12.92C24.5851 13.5173 24.7398 13.9813 25.0491 14.312C25.3585 14.6427 25.7745 14.808 26.2971 14.808C26.8305 14.808 27.2518 14.6427 27.5611 14.312C27.8705 13.9813 28.0251 13.5173 28.0251 12.92V8.072H30.7611ZM37.7024 14.68V17H36.3104C35.3184 17 34.545 16.76 33.9904 16.28C33.4357 15.7893 33.1584 14.9947 33.1584 13.896V10.344H32.0704V8.072H33.1584V5.896H35.8944V8.072H37.6864V10.344H35.8944V13.928C35.8944 14.1947 35.9584 14.3867 36.0864 14.504C36.2144 14.6213 36.4277 14.68 36.7264 14.68H37.7024ZM43.2904 17.128C42.4157 17.128 41.6264 16.9413 40.9224 16.568C40.229 16.1947 39.6797 15.6613 39.2744 14.968C38.8797 14.2747 38.6824 13.464 38.6824 12.536C38.6824 11.6187 38.885 10.8133 39.2904 10.12C39.6957 9.416 40.2504 8.87733 40.9544 8.504C41.6584 8.13067 42.4477 7.944 43.3224 7.944C44.197 7.944 44.9864 8.13067 45.6904 8.504C46.3944 8.87733 46.949 9.416 47.3544 10.12C47.7597 10.8133 47.9624 11.6187 47.9624 12.536C47.9624 13.4533 47.7544 14.264 47.3384 14.968C46.933 15.6613 46.373 16.1947 45.6584 16.568C44.9544 16.9413 44.165 17.128 43.2904 17.128ZM43.2904 14.76C43.813 14.76 44.2557 14.568 44.6184 14.184C44.9917 13.8 45.1784 13.2507 45.1784 12.536C45.1784 11.8213 44.997 11.272 44.6344 10.888C44.2824 10.504 43.845 10.312 43.3224 10.312C42.789 10.312 42.3464 10.504 41.9944 10.888C41.6424 11.2613 41.4664 11.8107 41.4664 12.536C41.4664 13.2507 41.637 13.8 41.9784 14.184C42.3304 14.568 42.7677 14.76 43.2904 14.76ZM52.1499 9.56C52.4699 9.06933 52.8699 8.68533 53.3499 8.408C53.8299 8.12 54.3632 7.976 54.9499 7.976V10.872H54.1979C53.5152 10.872 53.0032 11.0213 52.6619 11.32C52.3205 11.608 52.1499 12.12 52.1499 12.856V17H49.4139V8.072H52.1499V9.56ZM57.6336 7.144C57.1536 7.144 56.759 7.00533 56.4496 6.728C56.151 6.44 56.0016 6.088 56.0016 5.672C56.0016 5.24533 56.151 4.89333 56.4496 4.616C56.759 4.328 57.1536 4.184 57.6336 4.184C58.103 4.184 58.487 4.328 58.7856 4.616C59.095 4.89333 59.2496 5.24533 59.2496 5.672C59.2496 6.088 59.095 6.44 58.7856 6.728C58.487 7.00533 58.103 7.144 57.6336 7.144ZM58.9936 8.072V17H56.2576V8.072H58.9936ZM60.4324 12.52C60.4324 11.6027 60.603 10.7973 60.9444 10.104C61.2964 9.41067 61.771 8.87733 62.3684 8.504C62.9657 8.13067 63.6324 7.944 64.3684 7.944C64.9977 7.944 65.547 8.072 66.0164 8.328C66.4964 8.584 66.8644 8.92 67.1204 9.336V8.072H69.8564V17H67.1204V15.736C66.8537 16.152 66.4804 16.488 66.0004 16.744C65.531 17 64.9817 17.128 64.3524 17.128C63.627 17.128 62.9657 16.9413 62.3684 16.568C61.771 16.184 61.2964 15.6453 60.9444 14.952C60.603 14.248 60.4324 13.4373 60.4324 12.52ZM67.1204 12.536C67.1204 11.8533 66.9284 11.3147 66.5444 10.92C66.171 10.5253 65.7124 10.328 65.1684 10.328C64.6244 10.328 64.1604 10.5253 63.7764 10.92C63.403 11.304 63.2164 11.8373 63.2164 12.52C63.2164 13.2027 63.403 13.7467 63.7764 14.152C64.1604 14.5467 64.6244 14.744 65.1684 14.744C65.7124 14.744 66.171 14.5467 66.5444 14.152C66.9284 13.7573 67.1204 13.2187 67.1204 12.536ZM74.5718 5.16V17H71.8358V5.16H74.5718ZM79.3851 7.864V5.32H83.8171V17H80.9691V7.864H79.3851Z" fill="#EFEFEF"/>
</svg>
