<svg width="97" height="22" viewBox="0 0 97 22" fill="none" xmlns="http://www.w3.org/2000/svg">
<rect width="97" height="22" rx="4" fill="#563540"/>
<path d="M18.072 5.768V7.96H15.096V17H12.36V7.96H9.384V5.768H18.072ZM28.2611 8.072V17H25.5251V15.784C25.2478 16.1787 24.8691 16.4987 24.3891 16.744C23.9198 16.9787 23.3971 17.096 22.8211 17.096C22.1385 17.096 21.5358 16.9467 21.0131 16.648C20.4905 16.3387 20.0851 15.896 19.7971 15.32C19.5091 14.744 19.3651 14.0667 19.3651 13.288V8.072H22.0851V12.92C22.0851 13.5173 22.2398 13.9813 22.5491 14.312C22.8585 14.6427 23.2745 14.808 23.7971 14.808C24.3305 14.808 24.7518 14.6427 25.0611 14.312C25.3705 13.9813 25.5251 13.5173 25.5251 12.92V8.072H28.2611ZM35.2024 14.68V17H33.8104C32.8184 17 32.045 16.76 31.4904 16.28C30.9357 15.7893 30.6584 14.9947 30.6584 13.896V10.344H29.5704V8.072H30.6584V5.896H33.3944V8.072H35.1864V10.344H33.3944V13.928C33.3944 14.1947 33.4584 14.3867 33.5864 14.504C33.7144 14.6213 33.9277 14.68 34.2264 14.68H35.2024ZM40.7904 17.128C39.9157 17.128 39.1264 16.9413 38.4224 16.568C37.729 16.1947 37.1797 15.6613 36.7744 14.968C36.3797 14.2747 36.1824 13.464 36.1824 12.536C36.1824 11.6187 36.385 10.8133 36.7904 10.12C37.1957 9.416 37.7504 8.87733 38.4544 8.504C39.1584 8.13067 39.9477 7.944 40.8224 7.944C41.697 7.944 42.4864 8.13067 43.1904 8.504C43.8944 8.87733 44.449 9.416 44.8544 10.12C45.2597 10.8133 45.4624 11.6187 45.4624 12.536C45.4624 13.4533 45.2544 14.264 44.8384 14.968C44.433 15.6613 43.873 16.1947 43.1584 16.568C42.4544 16.9413 41.665 17.128 40.7904 17.128ZM40.7904 14.76C41.313 14.76 41.7557 14.568 42.1184 14.184C42.4917 13.8 42.6784 13.2507 42.6784 12.536C42.6784 11.8213 42.497 11.272 42.1344 10.888C41.7824 10.504 41.345 10.312 40.8224 10.312C40.289 10.312 39.8464 10.504 39.4944 10.888C39.1424 11.2613 38.9664 11.8107 38.9664 12.536C38.9664 13.2507 39.137 13.8 39.4784 14.184C39.8304 14.568 40.2677 14.76 40.7904 14.76ZM49.6499 9.56C49.9699 9.06933 50.3699 8.68533 50.8499 8.408C51.3299 8.12 51.8632 7.976 52.4499 7.976V10.872H51.6979C51.0152 10.872 50.5032 11.0213 50.1619 11.32C49.8205 11.608 49.6499 12.12 49.6499 12.856V17H46.9139V8.072H49.6499V9.56ZM55.1336 7.144C54.6536 7.144 54.259 7.00533 53.9496 6.728C53.651 6.44 53.5016 6.088 53.5016 5.672C53.5016 5.24533 53.651 4.89333 53.9496 4.616C54.259 4.328 54.6536 4.184 55.1336 4.184C55.603 4.184 55.987 4.328 56.2856 4.616C56.595 4.89333 56.7496 5.24533 56.7496 5.672C56.7496 6.088 56.595 6.44 56.2856 6.728C55.987 7.00533 55.603 7.144 55.1336 7.144ZM56.4936 8.072V17H53.7576V8.072H56.4936ZM57.9324 12.52C57.9324 11.6027 58.103 10.7973 58.4444 10.104C58.7964 9.41067 59.271 8.87733 59.8684 8.504C60.4657 8.13067 61.1324 7.944 61.8684 7.944C62.4977 7.944 63.047 8.072 63.5164 8.328C63.9964 8.584 64.3644 8.92 64.6204 9.336V8.072H67.3564V17H64.6204V15.736C64.3537 16.152 63.9804 16.488 63.5004 16.744C63.031 17 62.4817 17.128 61.8524 17.128C61.127 17.128 60.4657 16.9413 59.8684 16.568C59.271 16.184 58.7964 15.6453 58.4444 14.952C58.103 14.248 57.9324 13.4373 57.9324 12.52ZM64.6204 12.536C64.6204 11.8533 64.4284 11.3147 64.0444 10.92C63.671 10.5253 63.2124 10.328 62.6684 10.328C62.1244 10.328 61.6604 10.5253 61.2764 10.92C60.903 11.304 60.7164 11.8373 60.7164 12.52C60.7164 13.2027 60.903 13.7467 61.2764 14.152C61.6604 14.5467 62.1244 14.744 62.6684 14.744C63.2124 14.744 63.671 14.5467 64.0444 14.152C64.4284 13.7573 64.6204 13.2187 64.6204 12.536ZM72.0718 5.16V17H69.3358V5.16H72.0718ZM77.2371 14.92V12.712L82.2931 5.48H85.3491V12.552H86.6611V14.92H85.3491V17H82.6131V14.92H77.2371ZM82.8051 8.488L80.1171 12.552H82.8051V8.488Z" fill="#EFEFEF"/>
</svg>
