<svg width="97" height="22" viewBox="0 0 97 22" fill="none" xmlns="http://www.w3.org/2000/svg">
<rect width="97" height="22" rx="4" fill="#563540"/>
<path d="M19.072 5.768V7.96H16.096V17H13.36V7.96H10.384V5.768H19.072ZM29.2611 8.072V17H26.5251V15.784C26.2478 16.1787 25.8691 16.4987 25.3891 16.744C24.9198 16.9787 24.3971 17.096 23.8211 17.096C23.1385 17.096 22.5358 16.9467 22.0131 16.648C21.4905 16.3387 21.0851 15.896 20.7971 15.32C20.5091 14.744 20.3651 14.0667 20.3651 13.288V8.072H23.0851V12.92C23.0851 13.5173 23.2398 13.9813 23.5491 14.312C23.8585 14.6427 24.2745 14.808 24.7971 14.808C25.3305 14.808 25.7518 14.6427 26.0611 14.312C26.3705 13.9813 26.5251 13.5173 26.5251 12.92V8.072H29.2611ZM36.2024 14.68V17H34.8104C33.8184 17 33.045 16.76 32.4904 16.28C31.9357 15.7893 31.6584 14.9947 31.6584 13.896V10.344H30.5704V8.072H31.6584V5.896H34.3944V8.072H36.1864V10.344H34.3944V13.928C34.3944 14.1947 34.4584 14.3867 34.5864 14.504C34.7144 14.6213 34.9277 14.68 35.2264 14.68H36.2024ZM41.7904 17.128C40.9157 17.128 40.1264 16.9413 39.4224 16.568C38.729 16.1947 38.1797 15.6613 37.7744 14.968C37.3797 14.2747 37.1824 13.464 37.1824 12.536C37.1824 11.6187 37.385 10.8133 37.7904 10.12C38.1957 9.416 38.7504 8.87733 39.4544 8.504C40.1584 8.13067 40.9477 7.944 41.8224 7.944C42.697 7.944 43.4864 8.13067 44.1904 8.504C44.8944 8.87733 45.449 9.416 45.8544 10.12C46.2597 10.8133 46.4624 11.6187 46.4624 12.536C46.4624 13.4533 46.2544 14.264 45.8384 14.968C45.433 15.6613 44.873 16.1947 44.1584 16.568C43.4544 16.9413 42.665 17.128 41.7904 17.128ZM41.7904 14.76C42.313 14.76 42.7557 14.568 43.1184 14.184C43.4917 13.8 43.6784 13.2507 43.6784 12.536C43.6784 11.8213 43.497 11.272 43.1344 10.888C42.7824 10.504 42.345 10.312 41.8224 10.312C41.289 10.312 40.8464 10.504 40.4944 10.888C40.1424 11.2613 39.9664 11.8107 39.9664 12.536C39.9664 13.2507 40.137 13.8 40.4784 14.184C40.8304 14.568 41.2677 14.76 41.7904 14.76ZM50.6499 9.56C50.9699 9.06933 51.3699 8.68533 51.8499 8.408C52.3299 8.12 52.8632 7.976 53.4499 7.976V10.872H52.6979C52.0152 10.872 51.5032 11.0213 51.1619 11.32C50.8205 11.608 50.6499 12.12 50.6499 12.856V17H47.9139V8.072H50.6499V9.56ZM56.1336 7.144C55.6536 7.144 55.259 7.00533 54.9496 6.728C54.651 6.44 54.5016 6.088 54.5016 5.672C54.5016 5.24533 54.651 4.89333 54.9496 4.616C55.259 4.328 55.6536 4.184 56.1336 4.184C56.603 4.184 56.987 4.328 57.2856 4.616C57.595 4.89333 57.7496 5.24533 57.7496 5.672C57.7496 6.088 57.595 6.44 57.2856 6.728C56.987 7.00533 56.603 7.144 56.1336 7.144ZM57.4936 8.072V17H54.7576V8.072H57.4936ZM58.9324 12.52C58.9324 11.6027 59.103 10.7973 59.4444 10.104C59.7964 9.41067 60.271 8.87733 60.8684 8.504C61.4657 8.13067 62.1324 7.944 62.8684 7.944C63.4977 7.944 64.047 8.072 64.5164 8.328C64.9964 8.584 65.3644 8.92 65.6204 9.336V8.072H68.3564V17H65.6204V15.736C65.3537 16.152 64.9804 16.488 64.5004 16.744C64.031 17 63.4817 17.128 62.8524 17.128C62.127 17.128 61.4657 16.9413 60.8684 16.568C60.271 16.184 59.7964 15.6453 59.4444 14.952C59.103 14.248 58.9324 13.4373 58.9324 12.52ZM65.6204 12.536C65.6204 11.8533 65.4284 11.3147 65.0444 10.92C64.671 10.5253 64.2124 10.328 63.6684 10.328C63.1244 10.328 62.6604 10.5253 62.2764 10.92C61.903 11.304 61.7164 11.8373 61.7164 12.52C61.7164 13.2027 61.903 13.7467 62.2764 14.152C62.6604 14.5467 63.1244 14.744 63.6684 14.744C64.2124 14.744 64.671 14.5467 65.0444 14.152C65.4284 13.7573 65.6204 13.2187 65.6204 12.536ZM73.0718 5.16V17H70.3358V5.16H73.0718ZM78.0771 14.808C78.4398 14.52 78.6051 14.3867 78.5731 14.408C79.6185 13.544 80.4398 12.8347 81.0371 12.28C81.6451 11.7253 82.1571 11.144 82.5731 10.536C82.9891 9.928 83.1971 9.336 83.1971 8.76C83.1971 8.32267 83.0958 7.98133 82.8931 7.736C82.6905 7.49067 82.3865 7.368 81.9811 7.368C81.5758 7.368 81.2558 7.52267 81.0211 7.832C80.7971 8.13067 80.6851 8.55733 80.6851 9.112H78.0451C78.0665 8.20533 78.2585 7.448 78.6211 6.84C78.9945 6.232 79.4798 5.784 80.0771 5.496C80.6851 5.208 81.3571 5.064 82.0931 5.064C83.3625 5.064 84.3171 5.38933 84.9571 6.04C85.6078 6.69067 85.9331 7.53867 85.9331 8.584C85.9331 9.72533 85.5438 10.7867 84.7651 11.768C83.9865 12.7387 82.9945 13.688 81.7891 14.616H86.1091V16.84H78.0771V14.808Z" fill="#EFEFEF"/>
</svg>
