<svg width="97" height="22" viewBox="0 0 97 22" fill="none" xmlns="http://www.w3.org/2000/svg">
<rect width="97" height="22" rx="4" fill="#563540"/>
<path d="M18.572 5.768V7.96H15.596V17H12.86V7.96H9.884V5.768H18.572ZM28.7611 8.072V17H26.0251V15.784C25.7478 16.1787 25.3691 16.4987 24.8891 16.744C24.4198 16.9787 23.8971 17.096 23.3211 17.096C22.6385 17.096 22.0358 16.9467 21.5131 16.648C20.9905 16.3387 20.5851 15.896 20.2971 15.32C20.0091 14.744 19.8651 14.0667 19.8651 13.288V8.072H22.5851V12.92C22.5851 13.5173 22.7398 13.9813 23.0491 14.312C23.3585 14.6427 23.7745 14.808 24.2971 14.808C24.8305 14.808 25.2518 14.6427 25.5611 14.312C25.8705 13.9813 26.0251 13.5173 26.0251 12.92V8.072H28.7611ZM35.7024 14.68V17H34.3104C33.3184 17 32.545 16.76 31.9904 16.28C31.4357 15.7893 31.1584 14.9947 31.1584 13.896V10.344H30.0704V8.072H31.1584V5.896H33.8944V8.072H35.6864V10.344H33.8944V13.928C33.8944 14.1947 33.9584 14.3867 34.0864 14.504C34.2144 14.6213 34.4277 14.68 34.7264 14.68H35.7024ZM41.2904 17.128C40.4157 17.128 39.6264 16.9413 38.9224 16.568C38.229 16.1947 37.6797 15.6613 37.2744 14.968C36.8797 14.2747 36.6824 13.464 36.6824 12.536C36.6824 11.6187 36.885 10.8133 37.2904 10.12C37.6957 9.416 38.2504 8.87733 38.9544 8.504C39.6584 8.13067 40.4477 7.944 41.3224 7.944C42.197 7.944 42.9864 8.13067 43.6904 8.504C44.3944 8.87733 44.949 9.416 45.3544 10.12C45.7597 10.8133 45.9624 11.6187 45.9624 12.536C45.9624 13.4533 45.7544 14.264 45.3384 14.968C44.933 15.6613 44.373 16.1947 43.6584 16.568C42.9544 16.9413 42.165 17.128 41.2904 17.128ZM41.2904 14.76C41.813 14.76 42.2557 14.568 42.6184 14.184C42.9917 13.8 43.1784 13.2507 43.1784 12.536C43.1784 11.8213 42.997 11.272 42.6344 10.888C42.2824 10.504 41.845 10.312 41.3224 10.312C40.789 10.312 40.3464 10.504 39.9944 10.888C39.6424 11.2613 39.4664 11.8107 39.4664 12.536C39.4664 13.2507 39.637 13.8 39.9784 14.184C40.3304 14.568 40.7677 14.76 41.2904 14.76ZM50.1499 9.56C50.4699 9.06933 50.8699 8.68533 51.3499 8.408C51.8299 8.12 52.3632 7.976 52.9499 7.976V10.872H52.1979C51.5152 10.872 51.0032 11.0213 50.6619 11.32C50.3205 11.608 50.1499 12.12 50.1499 12.856V17H47.4139V8.072H50.1499V9.56ZM55.6336 7.144C55.1536 7.144 54.759 7.00533 54.4496 6.728C54.151 6.44 54.0016 6.088 54.0016 5.672C54.0016 5.24533 54.151 4.89333 54.4496 4.616C54.759 4.328 55.1536 4.184 55.6336 4.184C56.103 4.184 56.487 4.328 56.7856 4.616C57.095 4.89333 57.2496 5.24533 57.2496 5.672C57.2496 6.088 57.095 6.44 56.7856 6.728C56.487 7.00533 56.103 7.144 55.6336 7.144ZM56.9936 8.072V17H54.2576V8.072H56.9936ZM58.4324 12.52C58.4324 11.6027 58.603 10.7973 58.9444 10.104C59.2964 9.41067 59.771 8.87733 60.3684 8.504C60.9657 8.13067 61.6324 7.944 62.3684 7.944C62.9977 7.944 63.547 8.072 64.0164 8.328C64.4964 8.584 64.8644 8.92 65.1204 9.336V8.072H67.8564V17H65.1204V15.736C64.8537 16.152 64.4804 16.488 64.0004 16.744C63.531 17 62.9817 17.128 62.3524 17.128C61.627 17.128 60.9657 16.9413 60.3684 16.568C59.771 16.184 59.2964 15.6453 58.9444 14.952C58.603 14.248 58.4324 13.4373 58.4324 12.52ZM65.1204 12.536C65.1204 11.8533 64.9284 11.3147 64.5444 10.92C64.171 10.5253 63.7124 10.328 63.1684 10.328C62.6244 10.328 62.1604 10.5253 61.7764 10.92C61.403 11.304 61.2164 11.8373 61.2164 12.52C61.2164 13.2027 61.403 13.7467 61.7764 14.152C62.1604 14.5467 62.6244 14.744 63.1684 14.744C63.7124 14.744 64.171 14.5467 64.5444 14.152C64.9284 13.7573 65.1204 13.2187 65.1204 12.536ZM72.5718 5.16V17H69.8358V5.16H72.5718ZM77.7691 8.616C77.8118 7.47467 78.1851 6.59467 78.8891 5.976C79.5931 5.35733 80.5478 5.048 81.7531 5.048C82.5531 5.048 83.2358 5.18667 83.8011 5.464C84.3771 5.74133 84.8091 6.12 85.0971 6.6C85.3958 7.08 85.5451 7.61867 85.5451 8.216C85.5451 8.92 85.3691 9.496 85.0171 9.944C84.6651 10.3813 84.2545 10.68 83.7851 10.84V10.904C84.3931 11.1067 84.8731 11.4427 85.2251 11.912C85.5771 12.3813 85.7531 12.984 85.7531 13.72C85.7531 14.3813 85.5985 14.968 85.2891 15.48C84.9905 15.9813 84.5478 16.376 83.9611 16.664C83.3851 16.952 82.6971 17.096 81.8971 17.096C80.6171 17.096 79.5931 16.7813 78.8251 16.152C78.0678 15.5227 77.6678 14.5733 77.6251 13.304H80.2811C80.2918 13.7733 80.4251 14.1467 80.6811 14.424C80.9371 14.6907 81.3105 14.824 81.8011 14.824C82.2171 14.824 82.5371 14.7067 82.7611 14.472C82.9958 14.2267 83.1131 13.9067 83.1131 13.512C83.1131 13 82.9478 12.632 82.6171 12.408C82.2971 12.1733 81.7798 12.056 81.0651 12.056H80.5531V9.832H81.0651C81.6091 9.832 82.0465 9.74133 82.3771 9.56C82.7185 9.368 82.8891 9.032 82.8891 8.552C82.8891 8.168 82.7825 7.86933 82.5691 7.656C82.3558 7.44267 82.0625 7.336 81.6891 7.336C81.2838 7.336 80.9798 7.45867 80.7771 7.704C80.5851 7.94933 80.4731 8.25333 80.4411 8.616H77.7691Z" fill="#EFEFEF"/>
</svg>
