<svg width="10" height="11" viewBox="0 0 10 11" fill="none" xmlns="http://www.w3.org/2000/svg">
<path d="M8.82266 4.51641C8.67539 4.3625 8.52305 4.20391 8.46562 4.06445C8.4125 3.93672 8.40937 3.725 8.40625 3.51992C8.40039 3.13867 8.39414 2.70664 8.09375 2.40625C7.79336 2.10586 7.36133 2.09961 6.98008 2.09375C6.775 2.09062 6.56328 2.0875 6.43555 2.03437C6.29648 1.97695 6.1375 1.82461 5.98359 1.67734C5.71406 1.41836 5.40781 1.125 5 1.125C4.59219 1.125 4.28633 1.41836 4.01641 1.67734C3.8625 1.82461 3.70391 1.97695 3.56445 2.03437C3.4375 2.0875 3.225 2.09062 3.01992 2.09375C2.63867 2.09961 2.20664 2.10586 1.90625 2.40625C1.60586 2.70664 1.60156 3.13867 1.59375 3.51992C1.59062 3.725 1.5875 3.93672 1.53437 4.06445C1.47695 4.20352 1.32461 4.3625 1.17734 4.51641C0.918359 4.78594 0.625 5.09219 0.625 5.5C0.625 5.90781 0.918359 6.21367 1.17734 6.48359C1.32461 6.6375 1.47695 6.79609 1.53437 6.93555C1.5875 7.06328 1.59062 7.275 1.59375 7.48008C1.59961 7.86133 1.60586 8.29336 1.90625 8.59375C2.20664 8.89414 2.63867 8.90039 3.01992 8.90625C3.225 8.90937 3.43672 8.9125 3.56445 8.96562C3.70352 9.02305 3.8625 9.17539 4.01641 9.32266C4.28594 9.58164 4.59219 9.875 5 9.875C5.40781 9.875 5.71367 9.58164 5.98359 9.32266C6.1375 9.17539 6.29609 9.02305 6.43555 8.96562C6.56328 8.9125 6.775 8.90937 6.98008 8.90625C7.36133 8.90039 7.79336 8.89414 8.09375 8.59375C8.39414 8.29336 8.40039 7.86133 8.40625 7.48008C8.40937 7.275 8.4125 7.06328 8.46562 6.93555C8.52305 6.79648 8.67539 6.6375 8.82266 6.48359C9.08164 6.21406 9.375 5.90781 9.375 5.5C9.375 5.09219 9.08164 4.78633 8.82266 4.51641ZM6.78359 4.78359L4.59609 6.97109C4.56707 7.00015 4.53261 7.0232 4.49467 7.03893C4.45673 7.05465 4.41607 7.06275 4.375 7.06275C4.33393 7.06275 4.29327 7.05465 4.25533 7.03893C4.21739 7.0232 4.18293 7.00015 4.15391 6.97109L3.21641 6.03359C3.15777 5.97496 3.12483 5.89543 3.12483 5.8125C3.12483 5.72957 3.15777 5.65004 3.21641 5.59141C3.27504 5.53277 3.35457 5.49983 3.4375 5.49983C3.52043 5.49983 3.59996 5.53277 3.65859 5.59141L4.375 6.3082L6.34141 4.34141C6.37044 4.31237 6.40491 4.28934 6.44284 4.27363C6.48078 4.25791 6.52144 4.24983 6.5625 4.24983C6.60356 4.24983 6.64422 4.25791 6.68216 4.27363C6.72009 4.28934 6.75456 4.31237 6.78359 4.34141C6.81263 4.37044 6.83566 4.40491 6.85137 4.44284C6.86709 4.48078 6.87517 4.52144 6.87517 4.5625C6.87517 4.60356 6.86709 4.64422 6.85137 4.68216C6.83566 4.72009 6.81263 4.75456 6.78359 4.78359Z" fill="#EFEFEF"/>
</svg>
