<svg width="16" height="17" viewBox="0 0 16 17" fill="none" xmlns="http://www.w3.org/2000/svg">
<path d="M4.00751 9.73747C4.0092 9.77134 4.00399 9.8052 3.99219 9.83699C3.98039 9.86878 3.96224 9.89783 3.93885 9.92239C3.91547 9.94694 3.88733 9.96648 3.85616 9.97982C3.82498 9.99316 3.79142 10 3.75751 9.99997H1.00001C0.887154 10.0001 0.777562 9.96213 0.689053 9.89212C0.600543 9.82211 0.538322 9.72421 0.512507 9.61435C0.496432 9.53915 0.497174 9.46133 0.514677 9.38646C0.53218 9.31158 0.566014 9.2415 0.613757 9.18122C1.05489 8.59621 1.64019 8.13559 2.31251 7.84435C2.01734 7.57523 1.79095 7.23929 1.6523 6.86468C1.51366 6.49008 1.4668 6.0877 1.51564 5.69126C1.56448 5.29481 1.70761 4.91584 1.93303 4.58609C2.15845 4.25633 2.45961 3.98539 2.81128 3.79596C3.16294 3.60653 3.55488 3.50412 3.95426 3.49731C4.35365 3.4905 4.74885 3.57949 5.10676 3.75682C5.46468 3.93416 5.7749 4.19467 6.01143 4.51655C6.24797 4.83843 6.40393 5.2123 6.46626 5.60685C6.47431 5.65991 6.4648 5.71414 6.43919 5.7613C6.41358 5.80846 6.37327 5.84596 6.32438 5.8681C5.63088 6.18871 5.04355 6.701 4.6317 7.34452C4.21985 7.98804 4.00066 8.73594 4.00001 9.49997C4.00001 9.57997 4.00001 9.65872 4.00751 9.73747ZM15.3825 9.1806C14.9424 8.59626 14.3584 8.1359 13.6875 7.84435C13.9827 7.57523 14.2091 7.23929 14.3477 6.86468C14.4864 6.49008 14.5332 6.0877 14.4844 5.69126C14.4355 5.29481 14.2924 4.91584 14.067 4.58609C13.8416 4.25633 13.5404 3.98539 13.1887 3.79596C12.8371 3.60653 12.4451 3.50412 12.0458 3.49731C11.6464 3.4905 11.2512 3.57949 10.8932 3.75682C10.5353 3.93416 10.2251 4.19467 9.98858 4.51655C9.75205 4.83843 9.59608 5.2123 9.53376 5.60685C9.52571 5.65991 9.53521 5.71414 9.56082 5.7613C9.58643 5.80846 9.62675 5.84596 9.67563 5.8681C10.3691 6.18871 10.9565 6.701 11.3683 7.34452C11.7802 7.98804 11.9993 8.73594 12 9.49997C12 9.57997 12 9.65872 11.9925 9.73747C11.9908 9.77134 11.996 9.8052 12.0078 9.83699C12.0196 9.86878 12.0378 9.89783 12.0612 9.92239C12.0845 9.94694 12.1127 9.96648 12.1439 9.97982C12.175 9.99316 12.2086 10 12.2425 9.99997H15C15.1129 10.0001 15.2225 9.96213 15.311 9.89212C15.3995 9.82211 15.4617 9.72421 15.4875 9.61435C15.5037 9.53902 15.5029 9.46103 15.4853 9.38602C15.4677 9.31102 15.4337 9.24085 15.3856 9.1806H15.3825ZM9.82001 11.8793C10.3179 11.4981 10.6837 10.9704 10.8662 10.3704C11.0486 9.77051 11.0385 9.12848 10.8372 8.53459C10.6359 7.94071 10.2536 7.42483 9.74395 7.05945C9.23432 6.69408 8.62301 6.49759 7.99594 6.49759C7.36887 6.49759 6.75757 6.69408 6.24794 7.05945C5.73832 7.42483 5.35599 7.94071 5.1547 8.53459C4.95342 9.12848 4.94328 9.77051 5.12573 10.3704C5.30818 10.9704 5.67404 11.4981 6.17188 11.8793C5.28847 12.2621 4.5508 12.9177 4.06688 13.75C4.02299 13.826 3.99989 13.9122 3.99989 14C3.9999 14.0878 4.02301 14.174 4.06691 14.25C4.11081 14.326 4.17394 14.3892 4.24997 14.433C4.32599 14.4769 4.41223 14.5 4.50001 14.5H11.5C11.5878 14.5 11.674 14.4769 11.75 14.433C11.8261 14.3892 11.8892 14.326 11.9331 14.25C11.977 14.174 12.0001 14.0878 12.0001 14C12.0001 13.9122 11.977 13.826 11.9331 13.75C11.4482 12.9171 10.7091 12.2615 9.82438 11.8793H9.82001Z" fill="#563540"/>
</svg>
